<svg version="1.1" xmlns="http://www.w3.org/2000/svg" xmlns:xlink="http://www.w3.org/1999/xlink" width="328.94929" height="331.48969" viewBox="0,0,328.94929,331.48969"><g transform="translate(-75.52538,-14.35279)"><g data-paper-data="{&quot;isPaintingLayer&quot;:true}" fill-rule="nonzero" stroke-linecap="butt" stroke-linejoin="miter" stroke-miterlimit="10" stroke-dasharray="" stroke-dashoffset="0" style="mix-blend-mode: normal"><path d="M240.56036,333.14722c-83.93327,0.30709 -152.22552,-68.0103 -152.53498,-152.59118c-0.30946,-84.58086 67.48105,-153.39616 151.41432,-153.70325c83.93327,-0.30709 152.22551,68.0103 152.53497,152.59119c0.30946,84.58087 -67.48105,153.39616 -151.41433,153.70325z" fill="#6a4fff" stroke="#000000" stroke-width="25"/><path d="M314.71416,101.72611c18.22528,-0.06668 33.05384,14.65376 33.12052,32.87904c0.06668,18.22528 -14.65376,33.05384 -32.87904,33.12052c-18.22528,0.06668 -33.05384,-14.65376 -33.12052,-32.87904c-0.06668,-18.22528 14.65376,-33.05384 32.87904,-33.12052z" fill="#000000" stroke="none" stroke-width="0.5"/><path d="M315.04344,191.72551c18.22527,-0.06668 33.05384,14.65377 33.12052,32.87904c0.06668,18.22527 -14.65377,33.05384 -32.87904,33.12052c-18.22527,0.06668 -33.05384,-14.65377 -33.12052,-32.87904c-0.06668,-18.22527 14.65377,-33.05384 32.87904,-33.12052z" fill="#000000" stroke="none" stroke-width="0.5"/></g></g></svg>