<svg version="1.1" xmlns="http://www.w3.org/2000/svg" xmlns:xlink="http://www.w3.org/1999/xlink" width="666.99966" height="481.47147" viewBox="0,0,666.99966,481.47147"><g transform="translate(116.4441,60.73573)"><g data-paper-data="{&quot;isPaintingLayer&quot;:true}" fill-rule="nonzero" stroke-linejoin="miter" stroke-miterlimit="10" stroke-dasharray="" stroke-dashoffset="0" style="mix-blend-mode: normal"><path d="M-65.55556,415.73574v-471.47147h611.11111v471.47147z" fill="#dadada" stroke="#000000" stroke-width="10" stroke-linecap="butt"/><path d="M499.40111,96.87515l-448.12138,5.14289l2.5073,-82.11073l448.12138,-5.14289z" fill="#3c00a9" stroke="#000000" stroke-width="10" stroke-linecap="butt"/><path d="M514.68206,107.18411l-492.37142,1.51282l-0.32107,-42.04155l492.37142,-1.51282z" fill="#000000" stroke="#ffffff" stroke-width="10" stroke-linecap="butt"/><path d="M377.5905,158.11879c0,0 -10.38911,25.42015 -2.00118,22.33913c8.4809,-3.11518 43.60173,-15.40333 43.60173,-15.40333" fill="none" stroke="#000000" stroke-width="7.5" stroke-linecap="round"/><path d="M367.01364,159.54078c-25.01642,-0.33078 -45.02601,-21.03521 -44.69269,-46.24464c0.33333,-25.20943 20.88336,-45.37757 45.89978,-45.04679c25.01642,0.33078 45.02601,21.03521 44.69269,46.24465c-0.33333,25.20943 -20.88337,45.37757 -45.89978,45.04679z" fill="#6a4fff" stroke="#000000" stroke-width="5" stroke-linecap="butt"/><path d="M339.88217,91.81759c4.44343,0.05875 7.99791,3.70849 7.93916,8.15192c-0.05875,4.44343 -3.70849,7.99791 -8.15192,7.93916c-4.44343,-0.05875 -7.99791,-3.70849 -7.93916,-8.15192c0.05875,-4.44343 3.70849,-7.99791 8.15192,-7.93916z" fill="#000000" stroke="none" stroke-width="7.5" stroke-linecap="butt"/><path d="M410.46762,133.8301l50.60956,-18.58973" fill="none" stroke="#000000" stroke-width="9" stroke-linecap="round"/><path d="M320.79773,116.933l-42.44749,24.49897" fill="none" stroke="#000000" stroke-width="9" stroke-linecap="round"/><path d="M398.42319,23.36229c0,0 18.12884,22.94828 19.28609,29.57279c0.99831,5.71472 -11.24002,34.94091 -11.24002,34.94091" fill="none" stroke="#000000" stroke-width="9" stroke-linecap="round"/><path d="M363.95685,37.66675c-5.64337,-8.41224 -3.33122,-19.85187 5.16431,-25.55111c4.25899,-2.85715 12.47823,-6.76054 17.12141,-5.85988c2.32123,0.45026 -8.17009,10.10375 -6.6206,12.37675c1.53363,2.24972 13.70008,-3.69124 15.09995,-1.60453c0.96844,1.44359 -9.01779,9.20578 -7.63219,11.46124c1.48304,2.41407 14.50406,-2.98628 14.54339,-1.24934c0.13809,6.09691 -6.59827,11.6648 -12.07551,15.33921c-8.49553,5.69924 -19.95738,3.49992 -25.60075,-4.91233z" fill="#7259ff" stroke="#000000" stroke-width="5" stroke-linecap="butt"/><path d="M357.5938,83.95316c4.44343,0.05875 7.99791,3.70849 7.93916,8.15192c-0.05875,4.44343 -3.70849,7.99791 -8.15192,7.93916c-4.44343,-0.05875 -7.99791,-3.70849 -7.93916,-8.15192c0.00596,-0.45079 4.15928,-7.99195 8.15192,-7.93916z" fill="#000000" stroke="none" stroke-width="7.5" stroke-linecap="butt"/><path d="M357.92273,114.11635c1.94121,4.22266 0.24734,9.14793 -3.78338,11.00091c-4.03072,1.85298 -8.87192,-0.06803 -10.81314,-4.29068c-1.94121,-4.22266 -0.24734,-9.14793 3.78338,-11.00091c4.03072,-1.85298 8.87192,0.06803 10.81314,4.29068z" fill="none" stroke="#000000" stroke-width="6" stroke-linecap="butt"/><path d="M335.89788,86.35298c0,0 6.78558,1.67933 10.31661,0.34199c3.39573,-1.2861 10.47955,-8.21834 10.47955,-8.21834" fill="none" stroke="#000000" stroke-width="6" stroke-linecap="round"/><path d="M9.6272,394.54753l70.04997,-304.35503l40.97087,9.4298l-70.04997,304.35503z" fill="#000000" stroke="#ffffff" stroke-width="10" stroke-linecap="butt"/><path d="M-110.62349,352.3726l75.20117,-390.26805l133.67841,31.04405l-75.20117,390.26805z" fill="#3c00a9" stroke="#000000" stroke-width="10" stroke-linecap="butt"/><path d="M157.34152,264.26322c-35.99195,-17.97424 -50.48578,-61.9476 -32.37285,-98.21725c18.11292,-36.26965 61.97359,-51.10102 97.96554,-33.12678c35.99195,17.97424 50.48578,61.9476 32.37285,98.21727c-18.11292,36.26965 -61.97359,51.10101 -97.96554,33.12677z" fill="#ff4e4e" stroke="#000000" stroke-width="10" stroke-linecap="butt"/><path d="M250.35713,183.90496c6.39291,3.1926 8.98729,10.96318 5.79468,17.35609c-3.1926,6.39291 -10.96318,8.98729 -17.35609,5.79469c-6.39291,-3.1926 -8.98728,-10.96318 -5.79468,-17.35609c3.1926,-6.39291 10.96317,-8.98728 17.35609,-5.79468z" fill="#000000" stroke="none" stroke-width="10" stroke-linecap="butt"/><path d="M129.36927,247.6807c0,0 -6.64438,24.01163 -15.43533,33.29279c-8.87197,9.36669 -35.70356,20.58542 -35.70356,20.58542" fill="none" stroke="#000000" stroke-width="20" stroke-linecap="round"/><path d="M177.99653,276.42233l-109.72741,57.73949" fill="none" stroke="#000000" stroke-width="20" stroke-linecap="round"/><path d="M103.09921,90.10951c0,0 24.78943,8.131 31.82871,16.74649c8.02861,9.82635 -1.24865,63.08212 -1.24865,63.08212" fill="none" stroke="#000000" stroke-width="20" stroke-linecap="round"/><path d="M328.00987,243.39996c0,0 -18.23108,25.69468 -29.03984,25.3682c-9.32432,-0.28165 -50.03771,-16.702 -50.03771,-16.702" fill="none" stroke="#000000" stroke-width="20" stroke-linecap="round"/><path d="M339.21771,241.04682c-15.23957,5.75217 -32.3029,-2.0612 -38.11202,-17.45165c-2.91224,-7.71557 -6.01089,-22.01514 -2.89876,-28.95475c1.55583,-3.46927 12.8245,16.49542 16.95128,14.90258c4.08452,-1.57653 -0.75745,-22.80308 3.02281,-24.22994c2.6152,-0.98711 11.10783,17.49348 15.14706,16.15083c4.32329,-1.43708 0.64099,-23.80346 3.37492,-23.22836c9.59647,2.01866 15.84478,14.60664 19.59004,24.52918c5.80912,15.39045 -1.83576,32.52995 -17.07533,38.28212z" fill="#ff5959" stroke="#000000" stroke-width="10" stroke-linecap="butt"/><path d="M256.45057,225.12008l-22.09168,-2.88141" fill="none" stroke="#000000" stroke-width="10" stroke-linecap="round"/><path d="M255.91715,173.2059c0,0 -3.47983,3.20789 -7.51466,1.79388c-4.09252,-1.43422 -12.36535,-5.83494 -12.36535,-5.83494" fill="none" stroke="#000000" stroke-width="10" stroke-linecap="round"/><path d="M18.59108,48.88672v-43.54354h324.32432v43.54354z" fill="#000000" stroke="#969696" stroke-width="5" stroke-linecap="butt"/><text transform="translate(26.09858,40.62847) scale(0.79204,0.82535)" font-size="40" xml:space="preserve" fill="#000000" fill-rule="nonzero" stroke="#ffffff" stroke-width="1" stroke-linecap="butt" stroke-linejoin="miter" stroke-miterlimit="10" stroke-dasharray="" stroke-dashoffset="0" font-family="Pixel" font-weight="normal" text-anchor="start" style="mix-blend-mode: normal"><tspan x="0" dy="0">Spaceship Invasion</tspan></text><text transform="translate(225.79828,325.163) scale(0.5,0.5)" font-size="40" xml:space="preserve" fill="#000000" fill-rule="nonzero" stroke="#ffffff" stroke-width="1" stroke-linecap="butt" stroke-linejoin="miter" stroke-miterlimit="10" stroke-dasharray="" stroke-dashoffset="0" font-family="Pixel" font-weight="normal" text-anchor="start" style="mix-blend-mode: normal"><tspan x="0" dy="0">[Press Enter to Play]</tspan></text></g></g></svg>